<?xml version="1.0" standalone="no"?>
<!DOCTYPE svg PUBLIC "-//W3C//DTD SVG 20010904//EN"
 "http://www.w3.org/TR/2001/REC-SVG-20010904/DTD/svg10.dtd">
<svg version="1.0" xmlns="http://www.w3.org/2000/svg"
 width="1024.000000pt" height="1024.000000pt" viewBox="0 0 1024.000000 1024.000000"
 preserveAspectRatio="xMidYMid meet">
<metadata>
Created by potrace 1.14, written by Peter Selinger 2001-2017
</metadata>
<g transform="translate(0.000000,1024.000000) scale(0.100000,-0.100000)"
fill="#000000" stroke="none">
<path d="M0 5120 l0 -5120 5120 0 5120 0 0 5120 0 5120 -5120 0 -5120 0 0
-5120z m2815 2175 c205 -32 381 -82 561 -160 l122 -52 6 55 c11 96 50 135 150
148 l46 7 0 -552 0 -551 -104 0 -103 0 -8 92 c-25 321 -180 585 -429 730 -192
112 -467 155 -704 109 -272 -53 -450 -199 -507 -416 -20 -78 -21 -242 0 -318
51 -192 207 -354 500 -519 44 -25 179 -91 300 -148 599 -279 740 -360 906
-517 182 -174 276 -356 298 -578 36 -356 -112 -665 -424 -888 -418 -298 -1201
-356 -1765 -130 -101 40 -257 119 -315 159 -11 8 -23 14 -26 14 -4 0 -9 -40
-11 -89 -3 -79 -6 -93 -28 -116 -31 -34 -79 -55 -125 -55 l-35 0 0 650 0 651
102 -3 103 -3 13 -105 c7 -58 26 -161 43 -230 110 -443 322 -694 674 -795 246
-71 561 -48 767 56 239 121 358 315 358 583 0 194 -47 304 -189 447 -154 154
-323 257 -722 443 -594 275 -756 376 -916 566 -70 83 -154 240 -179 335 -25
93 -30 285 -9 386 53 262 235 490 515 646 122 68 337 133 523 158 129 18 470
12 612 -10z m2780 -120 l0 -80 -247 -3 c-137 -1 -248 -6 -248 -10 0 -5 227
-637 505 -1406 278 -768 505 -1400 505 -1404 0 -31 59 128 330 893 l311 880
-220 598 c-122 329 -221 602 -221 607 0 6 222 10 605 10 l605 0 0 -85 0 -85
-245 0 c-135 0 -245 -2 -245 -5 0 -4 921 -2652 965 -2775 12 -34 26 6 475
1360 255 767 465 1401 467 1408 4 9 -48 12 -241 12 l-246 0 0 85 0 85 505 0
505 0 0 -85 0 -84 -157 -3 -157 -3 -498 -1465 c-273 -806 -545 -1606 -604
-1777 l-106 -313 -54 0 c-29 0 -76 5 -103 11 -65 14 -108 61 -168 183 -24 51
-205 531 -403 1066 -357 971 -358 974 -372 939 -8 -19 -192 -526 -409 -1128
l-394 -1094 -79 7 c-47 3 -94 13 -115 24 -49 26 -119 131 -175 262 -24 58
-296 789 -604 1625 -309 836 -573 1553 -587 1593 l-27 72 -174 0 -174 0 0 85
0 85 748 -2 747 -3 0 -80z"/>
</g>
</svg>
